<svg width="36" height="37" viewBox="0 0 36 37" fill="none" xmlns="http://www.w3.org/2000/svg">

    <!--  social  -->
    <g id="telegram">
        <path d="M30.5104 16.2212C30.5104 24.3703 23.9043 30.9764 15.7552 30.9764C7.60614 30.9764 1 24.3703 1 16.2212C1 8.07211 7.60614 1.46597 15.7552 1.46597C23.9043 1.46597 30.5104 8.07211 30.5104 16.2212Z"
              stroke="white" stroke-width="2"/>
        <path fill-rule="evenodd" clip-rule="evenodd"
              d="M7.13174 16.0549C11.7247 14.0538 14.7874 12.7346 16.3198 12.0972C20.6952 10.2773 21.6044 9.9612 22.197 9.95076C22.3273 9.94847 22.6187 9.98077 22.8075 10.1339C22.9669 10.2633 23.0107 10.438 23.0317 10.5606C23.0527 10.6832 23.0788 10.9626 23.0581 11.1808C22.821 13.6721 21.795 19.7178 21.2731 22.508C21.0522 23.6887 20.6173 24.0846 20.1963 24.1233C19.2814 24.2075 18.5867 23.5187 17.7005 22.9378C16.3138 22.0288 15.5305 21.463 14.1845 20.576C12.6289 19.5509 13.6373 18.9875 14.5238 18.0667C14.7558 17.8258 18.787 14.1591 18.8651 13.8264C18.8748 13.7848 18.8839 13.6298 18.7917 13.5479C18.6996 13.466 18.5637 13.494 18.4655 13.5163C18.3265 13.5479 16.1112 15.012 11.8199 17.9088C11.1911 18.3406 10.6216 18.5509 10.1113 18.5399C9.54876 18.5278 8.46666 18.2219 7.66222 17.9604C6.67555 17.6396 5.89137 17.4701 5.95965 16.9254C5.99522 16.6417 6.38591 16.3515 7.13174 16.0549Z"
              fill="white"/>
    </g>
    <g id="telegram-color">
        <path d="M16.5118 33.0642C25.618 33.0642 33 25.6822 33 16.576C33 7.46989 25.618 0.0878906 16.5118 0.0878906C7.40568 0.0878906 0.0236816 7.46989 0.0236816 16.576C0.0236816 25.6822 7.40568 33.0642 16.5118 33.0642Z"
              fill="url(#paint0_linear_11_4220)"/>
        <path fill-rule="evenodd" clip-rule="evenodd"
              d="M7.48718 16.402C12.2938 14.3078 15.499 12.9272 17.1027 12.2602C21.6816 10.3557 22.6331 10.0248 23.2532 10.0139C23.3896 10.0115 23.6946 10.0453 23.8922 10.2056C24.059 10.3409 24.1049 10.5238 24.1268 10.6521C24.1488 10.7804 24.1761 11.0728 24.1544 11.3012C23.9063 13.9084 22.8326 20.2353 22.2864 23.1553C22.0552 24.3909 21.6001 24.8052 21.1596 24.8458C20.2021 24.9339 19.475 24.213 18.5476 23.6051C17.0964 22.6538 16.2766 22.0616 14.868 21.1334C13.2401 20.0606 14.2954 19.471 15.2231 18.5074C15.4659 18.2553 19.6847 14.418 19.7663 14.0699C19.7765 14.0263 19.786 13.8641 19.6896 13.7784C19.5932 13.6927 19.4509 13.722 19.3482 13.7453C19.2027 13.7783 16.8844 15.3106 12.3934 18.3421C11.7354 18.794 11.1394 19.0142 10.6054 19.0026C10.0166 18.9899 8.8842 18.6698 8.04234 18.3961C7.00977 18.0605 6.1891 17.883 6.26056 17.313C6.29779 17.0161 6.70666 16.7124 7.48718 16.402Z"
              fill="white"/>
        <defs>
            <linearGradient id="paint0_linear_11_4220" x1="16.5118" y1="0.0878906" x2="16.5118" y2="32.8196"
                            gradientUnits="userSpaceOnUse">
                <stop stop-color="#2AABEE"/>
                <stop offset="1" stop-color="#229ED9"/>
            </linearGradient>
        </defs>
    </g>
    <g id="whatsApp">
        <path d="M11.6478 9.16534C11.9188 9.17673 12.2186 9.18977 12.5034 9.84013C12.6981 10.2847 13.0256 11.1136 13.2867 11.7741C13.479 12.2609 13.6352 12.6562 13.6756 12.7391C13.7707 12.9344 13.834 13.1624 13.7073 13.4232C13.6883 13.4622 13.6707 13.499 13.654 13.5342C13.5587 13.7339 13.4887 13.8806 13.3274 14.0745C13.2642 14.1503 13.1988 14.232 13.1335 14.3136C13.0022 14.4776 12.8709 14.6416 12.757 14.7584C12.5662 14.9531 12.3681 15.1647 12.59 15.5553C12.8118 15.9463 13.575 17.2247 14.7053 18.2598C15.9196 19.3718 16.9745 19.8422 17.5102 20.081C17.6154 20.128 17.7006 20.1659 17.763 20.1981C18.1433 20.3934 18.3651 20.3609 18.5869 20.0998C18.8088 19.8394 19.5371 18.96 19.7906 18.5694C20.0441 18.1784 20.2976 18.2435 20.6462 18.3737C20.9948 18.5039 22.8642 19.4488 23.2444 19.6441C23.3186 19.6822 23.3879 19.7165 23.4522 19.7484C23.7175 19.88 23.8967 19.9688 23.9733 20.0998C24.0684 20.2632 24.0684 21.0448 23.7515 21.9566C23.4346 22.8686 21.8821 23.7481 21.185 23.8132C21.1179 23.8195 21.0512 23.8275 20.9826 23.8358C20.3383 23.9136 19.5251 24.0118 16.6222 22.8361C13.0502 21.3892 10.6951 17.8039 10.2085 17.0632C10.1686 17.0024 10.1412 16.9608 10.1268 16.9411L10.1226 16.9353C9.91757 16.6538 8.57423 14.8099 8.57423 12.9019C8.57423 11.1033 9.43497 10.1605 9.83099 9.72673C9.85805 9.69709 9.88294 9.66983 9.90524 9.64483C10.2536 9.254 10.6656 9.1562 10.9191 9.1562C10.933 9.1562 10.9469 9.1562 10.9608 9.15619C11.2001 9.15616 11.4383 9.15613 11.6478 9.16534Z"
              fill="url(#paint0_linear_11_4227)"/>
        <path fill-rule="evenodd" clip-rule="evenodd"
              d="M3.13526 24.1621C1.78445 21.7971 1.07834 19.1168 1.07834 16.3419C1.07834 7.73333 7.92451 0.732986 16.3057 0.732986C20.3888 0.732986 24.1957 2.37271 27.0815 5.30528C29.9366 8.26939 31.5331 12.1795 31.5331 16.3734C31.5331 24.9819 24.6869 31.9823 16.3057 31.9823C13.7576 31.9823 11.2401 31.3516 9.02972 30.0903L0.955536 32.2661L3.13526 24.1621ZM5.59128 23.2791L5.89829 23.7521L4.60888 28.5452L9.39813 27.2523L9.85863 27.5361C11.7928 28.7344 14.0339 29.365 16.3057 29.365C23.2747 29.365 28.9542 23.5314 28.9542 16.3734C28.9542 12.9048 27.6341 9.62531 25.2395 7.16573C22.8756 4.73769 19.6827 3.38176 16.3057 3.38176C9.33673 3.38176 3.65717 9.18385 3.65717 16.3734C3.65717 18.8014 4.33257 21.198 5.59128 23.2791Z"
              fill="url(#paint1_linear_11_4227)"/>
        <defs>
            <linearGradient id="paint0_linear_11_4227" x1="0.955536" y1="16.5013" x2="31.5331" y2="16.5013"
                            gradientUnits="userSpaceOnUse">
                <stop stop-color="white"/>
                <stop offset="0.609375" stop-color="white"/>
                <stop offset="1" stop-color="white"/>
            </linearGradient>
            <linearGradient id="paint1_linear_11_4227" x1="0.955536" y1="16.5013" x2="31.5331" y2="16.5013"
                            gradientUnits="userSpaceOnUse">
                <stop stop-color="white"/>
                <stop offset="0.609375" stop-color="white"/>
                <stop offset="1" stop-color="white"/>
            </linearGradient>
        </defs>
    </g>
    <g id="whatsApp-color">
        <path d="M11.1896 8.82463C11.4732 8.83655 11.787 8.8502 12.0851 9.53081C12.2888 9.99609 12.6316 10.8635 12.9048 11.5548C13.1061 12.0642 13.2696 12.4779 13.3118 12.5646C13.4113 12.769 13.4776 13.0077 13.3449 13.2806C13.3251 13.3214 13.3067 13.3599 13.2892 13.3967C13.1895 13.6057 13.1162 13.7592 12.9474 13.9622C12.8812 14.0415 12.8128 14.127 12.7444 14.2124C12.6071 14.384 12.4697 14.5557 12.3504 14.6779C12.1508 14.8817 11.9435 15.1031 12.1757 15.5118C12.4079 15.921 13.2065 17.2589 14.3894 18.3421C15.6602 19.5059 16.7642 19.9982 17.3248 20.2481C17.4349 20.2972 17.524 20.337 17.5894 20.3706C17.9874 20.575 18.2195 20.541 18.4516 20.2678C18.6838 19.9953 19.446 19.0749 19.7113 18.6661C19.9766 18.257 20.2419 18.3251 20.6067 18.4613C20.9715 18.5976 22.9278 19.5865 23.3258 19.7909C23.4034 19.8307 23.4759 19.8667 23.5432 19.9C23.8209 20.0377 24.0084 20.1307 24.0885 20.2678C24.188 20.4388 24.188 21.2567 23.8564 22.211C23.5248 23.1654 21.9001 24.0858 21.1705 24.1539C21.1003 24.1605 21.0305 24.1689 20.9587 24.1776C20.2844 24.259 19.4334 24.3618 16.3954 23.1313C12.6573 21.6172 10.1926 17.865 9.68339 17.0899C9.64164 17.0263 9.61303 16.9827 9.59795 16.9621L9.59352 16.956C9.37895 16.6615 7.97312 14.7317 7.97312 12.735C7.97312 10.8527 8.87389 9.86609 9.28834 9.41214C9.31666 9.38111 9.34271 9.35258 9.36605 9.32642C9.73058 8.91741 10.1618 8.81506 10.427 8.81506C10.4416 8.81506 10.4561 8.81506 10.4707 8.81506C10.7212 8.81502 10.9705 8.81499 11.1896 8.82463Z"
              fill="url(#paint0_linear_11_4219)"/>
        <path fill-rule="evenodd" clip-rule="evenodd"
              d="M2.28113 24.519C0.867471 22.044 0.128514 19.239 0.128514 16.335C0.128514 7.326 7.29317 0 16.0643 0C20.3374 0 24.3213 1.716 27.3414 4.785C30.3293 7.887 32 11.979 32 16.368C32 25.377 24.8353 32.703 16.0643 32.703C13.3976 32.703 10.7631 32.043 8.4498 30.723L0 33L2.28113 24.519ZM4.8514 23.595L5.17269 24.09L3.82329 29.106L8.83534 27.753L9.31727 28.05C11.3414 29.304 13.6867 29.964 16.0643 29.964C23.3574 29.964 29.3012 23.859 29.3012 16.368C29.3012 12.738 27.9197 9.306 25.4137 6.732C22.9398 4.191 19.5984 2.772 16.0643 2.772C8.77108 2.772 2.82731 8.844 2.82731 16.368C2.82731 18.909 3.53414 21.417 4.8514 23.595Z"
              fill="url(#paint1_linear_11_4219)"/>
        <defs>
            <linearGradient id="paint0_linear_11_4219" x1="0" y1="16.5018" x2="32" y2="16.5018"
                            gradientUnits="userSpaceOnUse">
                <stop stop-color="#20B038"/>
                <stop offset="1" stop-color="#60D66A"/>
            </linearGradient>
            <linearGradient id="paint1_linear_11_4219" x1="0" y1="16.5018" x2="32" y2="16.5018"
                            gradientUnits="userSpaceOnUse">
                <stop stop-color="#20B038"/>
                <stop offset="1" stop-color="#60D66A"/>
            </linearGradient>
        </defs>
    </g>
    <g id="instagram">
        <path fill-rule="evenodd" clip-rule="evenodd"
              d="M7.67021 15.7666C7.67021 11.295 11.295 7.67021 15.7666 7.67021C20.238 7.67021 23.8629 11.295 23.8629 15.7666C23.8629 20.238 20.238 23.8629 15.7666 23.8629C11.295 23.8629 7.67021 20.238 7.67021 15.7666ZM15.7666 21.022C12.864 21.022 10.511 18.6691 10.511 15.7666C10.511 12.864 12.864 10.511 15.7666 10.511C18.6691 10.511 21.022 12.864 21.022 15.7666C21.022 18.6691 18.6691 21.022 15.7666 21.022Z"
              fill="white"/>
        <path d="M24.1827 9.24229C25.2277 9.24229 26.0748 8.39526 26.0748 7.35034C26.0748 6.30541 25.2277 5.45832 24.1827 5.45832C23.1379 5.45832 22.2908 6.30541 22.2908 7.35034C22.2908 8.39526 23.1379 9.24229 24.1827 9.24229Z"
              fill="white"/>
        <path fill-rule="evenodd" clip-rule="evenodd"
              d="M15.7666 0C11.4846 0 10.9477 0.0181498 9.26601 0.0948794C7.58785 0.171421 6.44172 0.437972 5.43886 0.827754C4.40207 1.23062 3.52281 1.76973 2.64623 2.64623C1.76973 3.52281 1.23062 4.40207 0.827754 5.43886C0.437972 6.44172 0.171421 7.58785 0.0948794 9.26601C0.0181498 10.9477 0 11.4846 0 15.7666C0 20.0485 0.0181498 20.5854 0.0948794 22.2671C0.171421 23.9452 0.437972 25.0914 0.827754 26.0942C1.23062 27.131 1.76973 28.0103 2.64623 28.8868C3.52281 29.7633 4.40207 30.3025 5.43886 30.7054C6.44172 31.0951 7.58785 31.3617 9.26601 31.4382C10.9477 31.5149 11.4846 31.5331 15.7666 31.5331C20.0485 31.5331 20.5854 31.5149 22.2671 31.4382C23.9452 31.3617 25.0914 31.0951 26.0942 30.7054C27.131 30.3025 28.0103 29.7633 28.8868 28.8868C29.7633 28.0103 30.3025 27.131 30.7054 26.0942C31.0951 25.0914 31.3617 23.9452 31.4382 22.2671C31.5149 20.5854 31.5331 20.0485 31.5331 15.7666C31.5331 11.4846 31.5149 10.9477 31.4382 9.26601C31.3617 7.58785 31.0951 6.44172 30.7054 5.43886C30.3025 4.40207 29.7633 3.52281 28.8868 2.64623C28.0103 1.76973 27.131 1.23062 26.0942 0.827754C25.0914 0.437972 23.9452 0.171421 22.2671 0.0948794C20.5854 0.0181498 20.0485 0 15.7666 0ZM15.7666 2.84081C19.9764 2.84081 20.4751 2.8569 22.1376 2.93275C23.6748 3.00285 24.5096 3.2597 25.0652 3.47562C25.8011 3.76163 26.3264 4.10328 26.878 4.65504C27.4298 5.20673 27.7714 5.73194 28.0575 6.46789C28.2734 7.02346 28.5302 7.85828 28.6003 9.3955C28.6762 11.058 28.6923 11.5567 28.6923 15.7666C28.6923 19.9764 28.6762 20.4751 28.6003 22.1376C28.5302 23.6748 28.2734 24.5096 28.0575 25.0652C27.7714 25.8011 27.4298 26.3263 26.878 26.878C26.3264 27.4298 25.8011 27.7714 25.0652 28.0575C24.5096 28.2734 23.6748 28.5302 22.1376 28.6003C20.4753 28.6762 19.9767 28.6923 15.7666 28.6923C11.5564 28.6923 11.0578 28.6762 9.39551 28.6003C7.85828 28.5302 7.02346 28.2734 6.46789 28.0575C5.73195 27.7714 5.20673 27.4298 4.65504 26.878C4.10335 26.3263 3.76163 25.8011 3.47562 25.0652C3.2597 24.5096 3.00285 23.6748 2.93275 22.1376C2.8569 20.4751 2.84082 19.9764 2.84082 15.7666C2.84082 11.5567 2.8569 11.058 2.93275 9.3955C3.00285 7.85828 3.2597 7.02346 3.47562 6.46789C3.76163 5.73194 4.10329 5.20673 4.65504 4.65504C5.20673 4.10328 5.73195 3.76163 6.46789 3.47562C7.02346 3.2597 7.85828 3.00285 9.39551 2.93275C11.058 2.8569 11.5567 2.84081 15.7666 2.84081Z"
              fill="white"/>
    </g>
    <g id="instagram-color">
        <path fill-rule="evenodd" clip-rule="evenodd"
              d="M8.02703 16.5C8.02703 11.8205 11.8205 8.02703 16.5 8.02703C21.1795 8.02703 24.973 11.8205 24.973 16.5C24.973 21.1795 21.1795 24.973 16.5 24.973C11.8205 24.973 8.02703 21.1795 8.02703 16.5ZM16.5 22C13.4624 22 11 19.5376 11 16.5C11 13.4624 13.4624 11 16.5 11C19.5376 11 22 13.4624 22 16.5C22 19.5376 19.5376 22 16.5 22Z"
              fill="url(#paint0_linear_11_4218)"/>
        <path fill-rule="evenodd" clip-rule="evenodd"
              d="M8.02703 16.5C8.02703 11.8205 11.8205 8.02703 16.5 8.02703C21.1795 8.02703 24.973 11.8205 24.973 16.5C24.973 21.1795 21.1795 24.973 16.5 24.973C11.8205 24.973 8.02703 21.1795 8.02703 16.5ZM16.5 22C13.4624 22 11 19.5376 11 16.5C11 13.4624 13.4624 11 16.5 11C19.5376 11 22 13.4624 22 16.5C22 19.5376 19.5376 22 16.5 22Z"
              fill="url(#paint1_radial_11_4218)"/>
        <path d="M25.3077 9.67225C26.4013 9.67225 27.2878 8.78581 27.2878 7.69228C27.2878 6.59874 26.4013 5.71224 25.3077 5.71224C24.2143 5.71224 23.3278 6.59874 23.3278 7.69228C23.3278 8.78581 24.2143 9.67225 25.3077 9.67225Z"
              fill="url(#paint2_linear_11_4218)"/>
        <path d="M25.3077 9.67225C26.4013 9.67225 27.2878 8.78581 27.2878 7.69228C27.2878 6.59874 26.4013 5.71224 25.3077 5.71224C24.2143 5.71224 23.3278 6.59874 23.3278 7.69228C23.3278 8.78581 24.2143 9.67225 25.3077 9.67225Z"
              fill="url(#paint3_radial_11_4218)"/>
        <path fill-rule="evenodd" clip-rule="evenodd"
              d="M16.5 0C12.0189 0 11.457 0.0189941 9.69707 0.0992932C7.94084 0.179396 6.74139 0.458347 5.69187 0.866261C4.60685 1.28786 3.68669 1.85205 2.76934 2.76934C1.85205 3.68669 1.28786 4.60685 0.866261 5.69187C0.458347 6.74139 0.179396 7.94084 0.0992932 9.69707C0.0189941 11.457 0 12.0189 0 16.5C0 20.9811 0.0189941 21.543 0.0992932 23.3029C0.179396 25.0592 0.458347 26.2586 0.866261 27.3081C1.28786 28.3931 1.85205 29.3133 2.76934 30.2307C3.68669 31.1479 4.60685 31.7121 5.69187 32.1338C6.74139 32.5417 7.94084 32.8206 9.69707 32.9007C11.457 32.981 12.0189 33 16.5 33C20.9811 33 21.543 32.981 23.3029 32.9007C25.0592 32.8206 26.2586 32.5417 27.3081 32.1338C28.3931 31.7121 29.3133 31.1479 30.2307 30.2307C31.1479 29.3133 31.7121 28.3931 32.1338 27.3081C32.5417 26.2586 32.8206 25.0592 32.9007 23.3029C32.981 21.543 33 20.9811 33 16.5C33 12.0189 32.981 11.457 32.9007 9.69707C32.8206 7.94084 32.5417 6.74139 32.1338 5.69187C31.7121 4.60685 31.1479 3.68669 30.2307 2.76934C29.3133 1.85205 28.3931 1.28786 27.3081 0.866261C26.2586 0.458347 25.0592 0.179396 23.3029 0.0992932C21.543 0.0189941 20.9811 0 16.5 0ZM16.5 2.97297C20.9057 2.97297 21.4276 2.9898 23.1674 3.06918C24.7762 3.14254 25.6498 3.41134 26.2312 3.6373C27.0014 3.93662 27.5511 4.29417 28.1284 4.87159C28.7058 5.44895 29.0634 5.99859 29.3627 6.76877C29.5887 7.35019 29.8575 8.22385 29.9308 9.83258C30.0102 11.5724 30.027 12.0943 30.027 16.5C30.027 20.9057 30.0102 21.4276 29.9308 23.1674C29.8575 24.7761 29.5887 25.6498 29.3627 26.2312C29.0634 27.0014 28.7058 27.5511 28.1284 28.1284C27.5511 28.7058 27.0014 29.0634 26.2312 29.3627C25.6498 29.5887 24.7762 29.8575 23.1674 29.9308C21.4278 30.0102 20.906 30.027 16.5 30.027C12.094 30.027 11.5723 30.0102 9.83259 29.9308C8.22385 29.8575 7.35019 29.5887 6.76878 29.3627C5.9986 29.0634 5.44895 28.7058 4.87159 28.1284C4.29424 27.5511 3.93663 27.0014 3.63731 26.2312C3.41134 25.6498 3.14254 24.7761 3.06919 23.1674C2.9898 21.4276 2.97297 20.9057 2.97297 16.5C2.97297 12.0943 2.9898 11.5724 3.06919 9.83258C3.14254 8.22385 3.41134 7.35019 3.63731 6.76877C3.93663 5.99859 4.29417 5.44895 4.87159 4.87159C5.44895 4.29417 5.9986 3.93662 6.76878 3.6373C7.35019 3.41134 8.22385 3.14254 9.83259 3.06918C11.5724 2.9898 12.0943 2.97297 16.5 2.97297Z"
              fill="url(#paint4_linear_11_4218)"/>
        <path fill-rule="evenodd" clip-rule="evenodd"
              d="M16.5 0C12.0189 0 11.457 0.0189941 9.69707 0.0992932C7.94084 0.179396 6.74139 0.458347 5.69187 0.866261C4.60685 1.28786 3.68669 1.85205 2.76934 2.76934C1.85205 3.68669 1.28786 4.60685 0.866261 5.69187C0.458347 6.74139 0.179396 7.94084 0.0992932 9.69707C0.0189941 11.457 0 12.0189 0 16.5C0 20.9811 0.0189941 21.543 0.0992932 23.3029C0.179396 25.0592 0.458347 26.2586 0.866261 27.3081C1.28786 28.3931 1.85205 29.3133 2.76934 30.2307C3.68669 31.1479 4.60685 31.7121 5.69187 32.1338C6.74139 32.5417 7.94084 32.8206 9.69707 32.9007C11.457 32.981 12.0189 33 16.5 33C20.9811 33 21.543 32.981 23.3029 32.9007C25.0592 32.8206 26.2586 32.5417 27.3081 32.1338C28.3931 31.7121 29.3133 31.1479 30.2307 30.2307C31.1479 29.3133 31.7121 28.3931 32.1338 27.3081C32.5417 26.2586 32.8206 25.0592 32.9007 23.3029C32.981 21.543 33 20.9811 33 16.5C33 12.0189 32.981 11.457 32.9007 9.69707C32.8206 7.94084 32.5417 6.74139 32.1338 5.69187C31.7121 4.60685 31.1479 3.68669 30.2307 2.76934C29.3133 1.85205 28.3931 1.28786 27.3081 0.866261C26.2586 0.458347 25.0592 0.179396 23.3029 0.0992932C21.543 0.0189941 20.9811 0 16.5 0ZM16.5 2.97297C20.9057 2.97297 21.4276 2.9898 23.1674 3.06918C24.7762 3.14254 25.6498 3.41134 26.2312 3.6373C27.0014 3.93662 27.5511 4.29417 28.1284 4.87159C28.7058 5.44895 29.0634 5.99859 29.3627 6.76877C29.5887 7.35019 29.8575 8.22385 29.9308 9.83258C30.0102 11.5724 30.027 12.0943 30.027 16.5C30.027 20.9057 30.0102 21.4276 29.9308 23.1674C29.8575 24.7761 29.5887 25.6498 29.3627 26.2312C29.0634 27.0014 28.7058 27.5511 28.1284 28.1284C27.5511 28.7058 27.0014 29.0634 26.2312 29.3627C25.6498 29.5887 24.7762 29.8575 23.1674 29.9308C21.4278 30.0102 20.906 30.027 16.5 30.027C12.094 30.027 11.5723 30.0102 9.83259 29.9308C8.22385 29.8575 7.35019 29.5887 6.76878 29.3627C5.9986 29.0634 5.44895 28.7058 4.87159 28.1284C4.29424 27.5511 3.93663 27.0014 3.63731 26.2312C3.41134 25.6498 3.14254 24.7761 3.06919 23.1674C2.9898 21.4276 2.97297 20.9057 2.97297 16.5C2.97297 12.0943 2.9898 11.5724 3.06919 9.83258C3.14254 8.22385 3.41134 7.35019 3.63731 6.76877C3.93663 5.99859 4.29417 5.44895 4.87159 4.87159C5.44895 4.29417 5.9986 3.93662 6.76878 3.6373C7.35019 3.41134 8.22385 3.14254 9.83259 3.06918C11.5724 2.9898 12.0943 2.97297 16.5 2.97297Z"
              fill="url(#paint5_radial_11_4218)"/>
        <defs>
            <linearGradient id="paint0_linear_11_4218" x1="1.92545" y1="1.73491" x2="12.3301" y2="41.9812"
                            gradientUnits="userSpaceOnUse">
                <stop stop-color="#4E60D3"/>
                <stop offset="0.142763" stop-color="#913BAF"/>
                <stop offset="0.761458" stop-color="#D52D88"/>
                <stop offset="1" stop-color="#F26D4F"/>
            </linearGradient>
            <radialGradient id="paint1_radial_11_4218" cx="0" cy="0" r="1" gradientUnits="userSpaceOnUse"
                            gradientTransform="translate(9.99053 33) rotate(32.1601) scale(30.8202 22.1803)">
                <stop stop-color="#FED276"/>
                <stop offset="0.17024" stop-color="#FDBD61" stop-opacity="0.975006"/>
                <stop offset="0.454081" stop-color="#F6804D"/>
                <stop offset="1" stop-color="#E83D5C" stop-opacity="0.01"/>
            </radialGradient>
            <linearGradient id="paint2_linear_11_4218" x1="1.92545" y1="1.73491" x2="12.3301" y2="41.9812"
                            gradientUnits="userSpaceOnUse">
                <stop stop-color="#4E60D3"/>
                <stop offset="0.142763" stop-color="#913BAF"/>
                <stop offset="0.761458" stop-color="#D52D88"/>
                <stop offset="1" stop-color="#F26D4F"/>
            </linearGradient>
            <radialGradient id="paint3_radial_11_4218" cx="0" cy="0" r="1" gradientUnits="userSpaceOnUse"
                            gradientTransform="translate(9.99053 33) rotate(32.1601) scale(30.8202 22.1803)">
                <stop stop-color="#FED276"/>
                <stop offset="0.17024" stop-color="#FDBD61" stop-opacity="0.975006"/>
                <stop offset="0.454081" stop-color="#F6804D"/>
                <stop offset="1" stop-color="#E83D5C" stop-opacity="0.01"/>
            </radialGradient>
            <linearGradient id="paint4_linear_11_4218" x1="1.92545" y1="1.73491" x2="12.3301" y2="41.9812"
                            gradientUnits="userSpaceOnUse">
                <stop stop-color="#4E60D3"/>
                <stop offset="0.142763" stop-color="#913BAF"/>
                <stop offset="0.761458" stop-color="#D52D88"/>
                <stop offset="1" stop-color="#F26D4F"/>
            </linearGradient>
            <radialGradient id="paint5_radial_11_4218" cx="0" cy="0" r="1" gradientUnits="userSpaceOnUse"
                            gradientTransform="translate(9.99053 33) rotate(32.1601) scale(30.8202 22.1803)">
                <stop stop-color="#FED276"/>
                <stop offset="0.17024" stop-color="#FDBD61" stop-opacity="0.975006"/>
                <stop offset="0.454081" stop-color="#F6804D"/>
                <stop offset="1" stop-color="#E83D5C" stop-opacity="0.01"/>
            </radialGradient>
        </defs>
    </g>

    <!--  switch-theme  -->
    <g id="moon-switch-theme">
        <path d="M12 22C17.5228 22 22 17.5228 22 12C22 11.5373 21.3065 11.4608 21.0672 11.8568C19.9289 13.7406 17.8615 15 15.5 15C11.9101 15 9 12.0899 9 8.5C9 6.13845 10.2594 4.07105 12.1432 2.93276C12.5392 2.69347 12.4627 2 12 2C6.47715 2 2 6.47715 2 12C2 17.5228 6.47715 22 12 22Z"
              fill="#1C274C"/>
    </g>

    <!--  layout  -->
    <g id="arrowRight">
        <path fill-rule="evenodd" clip-rule="evenodd"
              d="M2.33334 14.0002C2.33334 13.3559 2.85568 12.8335 3.5 12.8335H24.5C25.1443 12.8335 25.6667 13.3559 25.6667 14.0002C25.6667 14.6446 25.1443 15.1669 24.5 15.1669H3.5C2.85568 15.1669 2.33334 14.6446 2.33334 14.0002Z"
              fill="white"/>
        <path fill-rule="evenodd" clip-rule="evenodd"
              d="M16.6751 6.1752C17.1306 5.71959 17.8694 5.71959 18.325 6.1752L25.325 13.1753C25.7805 13.6308 25.7805 14.3696 25.325 14.8252L18.325 21.8252C17.8694 22.2807 17.1306 22.2807 16.6751 21.8252C16.2195 21.3696 16.2195 20.6308 16.6751 20.1753L22.8501 14.0002L16.6751 7.82512C16.2195 7.3695 16.2195 6.63082 16.6751 6.1752Z"
              fill="white"/>
    </g>
    <path id="dot" fill-rule="evenodd" clip-rule="evenodd"
          d="M9.4248 4.83302C9.4248 2.32279 7.5146 0.288086 5.15869 0.288086C2.80336 0.288086 0.893738 2.32279 0.893738 4.83302C0.893737 7.34263 2.80336 9.37796 5.15869 9.37796C7.5146 9.37796 9.4248 7.34264 9.4248 4.83302Z"
          fill="white"/>
    <g id="ellipse">
        <circle cx="76" cy="76" r="63.5" stroke-opacity="0.4" stroke-width="25"/>
    </g>
    <g id="plus">
        <path d="M73.2847 20.9092L85.4554 33.0798L33.7689 84.7663L21.5983 72.5956L73.2847 20.9092ZM33.251 19.4073L88.1485 74.3047L75.0456 87.4076L20.1481 32.5102L33.251 19.4073Z"
              fill-opacity="0.25"/>
    </g>
</svg>